<mxfile host="65bd71144e">
    <diagram id="pP4XYJahxfcbjPFqiPfE" name="Page-1">
        <mxGraphModel dx="629" dy="661" grid="1" gridSize="10" guides="1" tooltips="1" connect="1" arrows="1" fold="1" page="1" pageScale="1" pageWidth="850" pageHeight="1100" background="#ffffff" math="0" shadow="0">
            <root>
                <mxCell id="0"/>
                <mxCell id="1" parent="0"/>
                <mxCell id="2" value="" style="childLayout=tableLayout;recursiveResize=0;shadow=0;fillColor=none;strokeColor=#000000;fontColor=#000000;" parent="1" vertex="1">
                    <mxGeometry x="60" y="170" width="514.29" height="400" as="geometry"/>
                </mxCell>
                <mxCell id="3" value="" style="shape=tableRow;horizontal=0;startSize=0;swimlaneHead=0;swimlaneBody=0;top=0;left=0;bottom=0;right=0;dropTarget=0;collapsible=0;recursiveResize=0;expand=0;fontStyle=0;fillColor=default;strokeColor=inherit;" parent="2" vertex="1">
                    <mxGeometry width="514.29" height="134" as="geometry"/>
                </mxCell>
                <mxCell id="4" value="AirPort" style="connectable=0;recursiveResize=0;strokeColor=inherit;fillColor=#FFFFFF;align=center;whiteSpace=wrap;html=1;strokeWidth=5;fontSize=15;fontColor=#000000;" parent="3" vertex="1">
                    <mxGeometry width="171" height="134" as="geometry">
                        <mxRectangle width="171" height="134" as="alternateBounds"/>
                    </mxGeometry>
                </mxCell>
                <mxCell id="5" value="Road1" style="connectable=0;recursiveResize=0;strokeColor=inherit;fillColor=#FFFFFF;align=center;whiteSpace=wrap;html=1;strokeWidth=5;fontSize=15;fontColor=#000000;" parent="3" vertex="1">
                    <mxGeometry x="171" width="172" height="134" as="geometry">
                        <mxRectangle width="172" height="134" as="alternateBounds"/>
                    </mxGeometry>
                </mxCell>
                <mxCell id="6" value="&lt;font style=&quot;font-size: 15px;&quot;&gt;X&lt;/font&gt;" style="connectable=0;recursiveResize=0;strokeColor=inherit;fillColor=#FFFFFF;align=center;whiteSpace=wrap;html=1;strokeWidth=5;fontSize=15;fontColor=#000000;" parent="3" vertex="1">
                    <mxGeometry x="343" width="171" height="134" as="geometry">
                        <mxRectangle width="171" height="134" as="alternateBounds"/>
                    </mxGeometry>
                </mxCell>
                <mxCell id="7" style="shape=tableRow;horizontal=0;startSize=0;swimlaneHead=0;swimlaneBody=0;top=0;left=0;bottom=0;right=0;dropTarget=0;collapsible=0;recursiveResize=0;expand=0;fontStyle=0;fillColor=default;strokeColor=inherit;" parent="2" vertex="1">
                    <mxGeometry y="134" width="514.29" height="132" as="geometry"/>
                </mxCell>
                <mxCell id="8" value="X" style="connectable=0;recursiveResize=0;strokeColor=inherit;fillColor=#FFFFFF;align=center;whiteSpace=wrap;html=1;strokeWidth=5;fontSize=15;fontColor=#000000;" parent="7" vertex="1">
                    <mxGeometry width="171" height="132" as="geometry">
                        <mxRectangle width="171" height="132" as="alternateBounds"/>
                    </mxGeometry>
                </mxCell>
                <mxCell id="9" value="Road2" style="connectable=0;recursiveResize=0;strokeColor=inherit;fillColor=#FFFFFF;align=center;whiteSpace=wrap;html=1;strokeWidth=5;fontSize=15;fontColor=#000000;" parent="7" vertex="1">
                    <mxGeometry x="171" width="172" height="132" as="geometry">
                        <mxRectangle width="172" height="132" as="alternateBounds"/>
                    </mxGeometry>
                </mxCell>
                <mxCell id="10" value="X" style="connectable=0;recursiveResize=0;strokeColor=inherit;fillColor=#FFFFFF;align=center;whiteSpace=wrap;html=1;strokeWidth=5;fontSize=15;fontColor=#000000;" parent="7" vertex="1">
                    <mxGeometry x="343" width="171" height="132" as="geometry">
                        <mxRectangle width="171" height="132" as="alternateBounds"/>
                    </mxGeometry>
                </mxCell>
                <mxCell id="11" style="shape=tableRow;horizontal=0;startSize=0;swimlaneHead=0;swimlaneBody=0;top=0;left=0;bottom=0;right=0;dropTarget=0;collapsible=0;recursiveResize=0;expand=0;fontStyle=0;fillColor=default;strokeColor=inherit;" parent="2" vertex="1">
                    <mxGeometry y="266" width="514.29" height="134" as="geometry"/>
                </mxCell>
                <mxCell id="12" value="Pool" style="connectable=0;recursiveResize=0;strokeColor=inherit;fillColor=#FFFFFF;align=center;whiteSpace=wrap;html=1;strokeWidth=5;fontSize=15;fontColor=#000000;" parent="11" vertex="1">
                    <mxGeometry width="171" height="134" as="geometry">
                        <mxRectangle width="171" height="134" as="alternateBounds"/>
                    </mxGeometry>
                </mxCell>
                <mxCell id="13" value="Road3" style="connectable=0;recursiveResize=0;strokeColor=inherit;fillColor=#FFFFFF;align=center;whiteSpace=wrap;html=1;strokeWidth=5;fontSize=15;fontColor=#000000;" parent="11" vertex="1">
                    <mxGeometry x="171" width="172" height="134" as="geometry">
                        <mxRectangle width="172" height="134" as="alternateBounds"/>
                    </mxGeometry>
                </mxCell>
                <mxCell id="14" value="Gate" style="connectable=0;recursiveResize=0;strokeColor=inherit;fillColor=#FFFFFF;align=center;whiteSpace=wrap;html=1;strokeWidth=5;fontSize=15;fontColor=#000000;" parent="11" vertex="1">
                    <mxGeometry x="343" width="171" height="134" as="geometry">
                        <mxRectangle width="171" height="134" as="alternateBounds"/>
                    </mxGeometry>
                </mxCell>
            </root>
        </mxGraphModel>
    </diagram>
</mxfile>